<?xml version="1.0" encoding="utf-8"?>
<svg xmlns="http://www.w3.org/2000/svg" xmlns:xlink="http://www.w3.org/1999/xlink" width="600" height="400" viewBox="0 0 2400 1600">
<defs>
  <clipPath id="clip390">
    <rect x="0" y="0" width="2400" height="1600"/>
  </clipPath>
</defs>
<path clip-path="url(#clip390)" d="
M0 1600 L2400 1600 L2400 0 L0 0  Z
  " fill="#ffffff" fill-rule="evenodd" fill-opacity="1"/>
<defs>
  <clipPath id="clip391">
    <rect x="480" y="0" width="1681" height="1600"/>
  </clipPath>
</defs>
<path clip-path="url(#clip390)" d="
M272.952 1423.18 L2352.76 1423.18 L2352.76 47.2441 L272.952 47.2441  Z
  " fill="#ffffff" fill-rule="evenodd" fill-opacity="1"/>
<defs>
  <clipPath id="clip392">
    <rect x="272" y="47" width="2081" height="1377"/>
  </clipPath>
</defs>
<polyline clip-path="url(#clip392)" style="stroke:#000000; stroke-width:2; stroke-opacity:0.1; fill:none" points="
  298.559,1423.18 298.559,47.2441 
  "/>
<polyline clip-path="url(#clip392)" style="stroke:#000000; stroke-width:2; stroke-opacity:0.1; fill:none" points="
  963.67,1423.18 963.67,47.2441 
  "/>
<polyline clip-path="url(#clip392)" style="stroke:#000000; stroke-width:2; stroke-opacity:0.1; fill:none" points="
  1628.78,1423.18 1628.78,47.2441 
  "/>
<polyline clip-path="url(#clip392)" style="stroke:#000000; stroke-width:2; stroke-opacity:0.1; fill:none" points="
  2293.89,1423.18 2293.89,47.2441 
  "/>
<polyline clip-path="url(#clip390)" style="stroke:#000000; stroke-width:4; stroke-opacity:1; fill:none" points="
  272.952,1423.18 2352.76,1423.18 
  "/>
<polyline clip-path="url(#clip390)" style="stroke:#000000; stroke-width:4; stroke-opacity:1; fill:none" points="
  298.559,1423.18 298.559,1406.67 
  "/>
<polyline clip-path="url(#clip390)" style="stroke:#000000; stroke-width:4; stroke-opacity:1; fill:none" points="
  963.67,1423.18 963.67,1406.67 
  "/>
<polyline clip-path="url(#clip390)" style="stroke:#000000; stroke-width:4; stroke-opacity:1; fill:none" points="
  1628.78,1423.18 1628.78,1406.67 
  "/>
<polyline clip-path="url(#clip390)" style="stroke:#000000; stroke-width:4; stroke-opacity:1; fill:none" points="
  2293.89,1423.18 2293.89,1406.67 
  "/>
<path clip-path="url(#clip390)" d="M 0 0 M298.559 1452.37 Q294.948 1452.37 293.119 1455.94 Q291.313 1459.48 291.313 1466.61 Q291.313 1473.71 293.119 1477.28 Q294.948 1480.82 298.559 1480.82 Q302.193 1480.82 303.999 1477.28 Q305.827 1473.71 305.827 1466.61 Q305.827 1459.48 303.999 1455.94 Q302.193 1452.37 298.559 1452.37 M298.559 1448.67 Q304.369 1448.67 307.424 1453.27 Q310.503 1457.86 310.503 1466.61 Q310.503 1475.33 307.424 1479.94 Q304.369 1484.52 298.559 1484.52 Q292.749 1484.52 289.67 1479.94 Q286.614 1475.33 286.614 1466.61 Q286.614 1457.86 289.67 1453.27 Q292.749 1448.67 298.559 1448.67 Z" fill="#000000" fill-rule="evenodd" fill-opacity="1" /><path clip-path="url(#clip390)" d="M 0 0 M913.532 1479.92 L921.171 1479.92 L921.171 1453.55 L912.86 1455.22 L912.86 1450.96 L921.124 1449.29 L925.8 1449.29 L925.8 1479.92 L933.439 1479.92 L933.439 1483.85 L913.532 1483.85 L913.532 1479.92 Z" fill="#000000" fill-rule="evenodd" fill-opacity="1" /><path clip-path="url(#clip390)" d="M 0 0 M948.508 1452.37 Q944.897 1452.37 943.069 1455.94 Q941.263 1459.48 941.263 1466.61 Q941.263 1473.71 943.069 1477.28 Q944.897 1480.82 948.508 1480.82 Q952.143 1480.82 953.948 1477.28 Q955.777 1473.71 955.777 1466.61 Q955.777 1459.48 953.948 1455.94 Q952.143 1452.37 948.508 1452.37 M948.508 1448.67 Q954.319 1448.67 957.374 1453.27 Q960.453 1457.86 960.453 1466.61 Q960.453 1475.33 957.374 1479.94 Q954.319 1484.52 948.508 1484.52 Q942.698 1484.52 939.62 1479.94 Q936.564 1475.33 936.564 1466.61 Q936.564 1457.86 939.62 1453.27 Q942.698 1448.67 948.508 1448.67 Z" fill="#000000" fill-rule="evenodd" fill-opacity="1" /><path clip-path="url(#clip390)" d="M 0 0 M975.522 1452.37 Q971.911 1452.37 970.082 1455.94 Q968.277 1459.48 968.277 1466.61 Q968.277 1473.71 970.082 1477.28 Q971.911 1480.82 975.522 1480.82 Q979.156 1480.82 980.962 1477.28 Q982.791 1473.71 982.791 1466.61 Q982.791 1459.48 980.962 1455.94 Q979.156 1452.37 975.522 1452.37 M975.522 1448.67 Q981.332 1448.67 984.388 1453.27 Q987.466 1457.86 987.466 1466.61 Q987.466 1475.33 984.388 1479.94 Q981.332 1484.52 975.522 1484.52 Q969.712 1484.52 966.633 1479.94 Q963.578 1475.33 963.578 1466.61 Q963.578 1457.86 966.633 1453.27 Q969.712 1448.67 975.522 1448.67 Z" fill="#000000" fill-rule="evenodd" fill-opacity="1" /><path clip-path="url(#clip390)" d="M 0 0 M1002.54 1452.37 Q998.925 1452.37 997.096 1455.94 Q995.291 1459.48 995.291 1466.61 Q995.291 1473.71 997.096 1477.28 Q998.925 1480.82 1002.54 1480.82 Q1006.17 1480.82 1007.98 1477.28 Q1009.8 1473.71 1009.8 1466.61 Q1009.8 1459.48 1007.98 1455.94 Q1006.17 1452.37 1002.54 1452.37 M1002.54 1448.67 Q1008.35 1448.67 1011.4 1453.27 Q1014.48 1457.86 1014.48 1466.61 Q1014.48 1475.33 1011.4 1479.94 Q1008.35 1484.52 1002.54 1484.52 Q996.726 1484.52 993.647 1479.94 Q990.591 1475.33 990.591 1466.61 Q990.591 1457.86 993.647 1453.27 Q996.726 1448.67 1002.54 1448.67 Z" fill="#000000" fill-rule="evenodd" fill-opacity="1" /><path clip-path="url(#clip390)" d="M 0 0 M1582.91 1479.92 L1599.23 1479.92 L1599.23 1483.85 L1577.29 1483.85 L1577.29 1479.92 Q1579.95 1477.16 1584.53 1472.53 Q1589.14 1467.88 1590.32 1466.54 Q1592.57 1464.01 1593.45 1462.28 Q1594.35 1460.52 1594.35 1458.83 Q1594.35 1456.07 1592.4 1454.34 Q1590.48 1452.6 1587.38 1452.6 Q1585.18 1452.6 1582.73 1453.37 Q1580.3 1454.13 1577.52 1455.68 L1577.52 1450.96 Q1580.34 1449.82 1582.8 1449.25 Q1585.25 1448.67 1587.29 1448.67 Q1592.66 1448.67 1595.85 1451.35 Q1599.05 1454.04 1599.05 1458.53 Q1599.05 1460.66 1598.24 1462.58 Q1597.45 1464.48 1595.34 1467.07 Q1594.77 1467.74 1591.66 1470.96 Q1588.56 1474.15 1582.91 1479.92 Z" fill="#000000" fill-rule="evenodd" fill-opacity="1" /><path clip-path="url(#clip390)" d="M 0 0 M1614.3 1452.37 Q1610.69 1452.37 1608.86 1455.94 Q1607.06 1459.48 1607.06 1466.61 Q1607.06 1473.71 1608.86 1477.28 Q1610.69 1480.82 1614.3 1480.82 Q1617.94 1480.82 1619.74 1477.28 Q1621.57 1473.71 1621.57 1466.61 Q1621.57 1459.48 1619.74 1455.94 Q1617.94 1452.37 1614.3 1452.37 M1614.3 1448.67 Q1620.11 1448.67 1623.17 1453.27 Q1626.25 1457.86 1626.25 1466.61 Q1626.25 1475.33 1623.17 1479.94 Q1620.11 1484.52 1614.3 1484.52 Q1608.49 1484.52 1605.41 1479.94 Q1602.36 1475.33 1602.36 1466.61 Q1602.36 1457.86 1605.41 1453.27 Q1608.49 1448.67 1614.3 1448.67 Z" fill="#000000" fill-rule="evenodd" fill-opacity="1" /><path clip-path="url(#clip390)" d="M 0 0 M1641.32 1452.37 Q1637.71 1452.37 1635.88 1455.94 Q1634.07 1459.48 1634.07 1466.61 Q1634.07 1473.71 1635.88 1477.28 Q1637.71 1480.82 1641.32 1480.82 Q1644.95 1480.82 1646.76 1477.28 Q1648.59 1473.71 1648.59 1466.61 Q1648.59 1459.48 1646.76 1455.94 Q1644.95 1452.37 1641.32 1452.37 M1641.32 1448.67 Q1647.13 1448.67 1650.18 1453.27 Q1653.26 1457.86 1653.26 1466.61 Q1653.26 1475.33 1650.18 1479.94 Q1647.13 1484.52 1641.32 1484.52 Q1635.51 1484.52 1632.43 1479.94 Q1629.37 1475.33 1629.37 1466.61 Q1629.37 1457.86 1632.43 1453.27 Q1635.51 1448.67 1641.32 1448.67 Z" fill="#000000" fill-rule="evenodd" fill-opacity="1" /><path clip-path="url(#clip390)" d="M 0 0 M1668.33 1452.37 Q1664.72 1452.37 1662.89 1455.94 Q1661.08 1459.48 1661.08 1466.61 Q1661.08 1473.71 1662.89 1477.28 Q1664.72 1480.82 1668.33 1480.82 Q1671.96 1480.82 1673.77 1477.28 Q1675.6 1473.71 1675.6 1466.61 Q1675.6 1459.48 1673.77 1455.94 Q1671.96 1452.37 1668.33 1452.37 M1668.33 1448.67 Q1674.14 1448.67 1677.2 1453.27 Q1680.27 1457.86 1680.27 1466.61 Q1680.27 1475.33 1677.2 1479.94 Q1674.14 1484.52 1668.33 1484.52 Q1662.52 1484.52 1659.44 1479.94 Q1656.39 1475.33 1656.39 1466.61 Q1656.39 1457.86 1659.44 1453.27 Q1662.52 1448.67 1668.33 1448.67 Z" fill="#000000" fill-rule="evenodd" fill-opacity="1" /><path clip-path="url(#clip390)" d="M 0 0 M2257.62 1465.22 Q2260.98 1465.94 2262.85 1468.2 Q2264.75 1470.47 2264.75 1473.81 Q2264.75 1478.92 2261.23 1481.72 Q2257.71 1484.52 2251.23 1484.52 Q2249.06 1484.52 2246.74 1484.08 Q2244.45 1483.67 2242 1482.81 L2242 1478.3 Q2243.94 1479.43 2246.25 1480.01 Q2248.57 1480.59 2251.09 1480.59 Q2255.49 1480.59 2257.78 1478.85 Q2260.1 1477.12 2260.1 1473.81 Q2260.1 1470.75 2257.94 1469.04 Q2255.82 1467.3 2252 1467.3 L2247.97 1467.3 L2247.97 1463.46 L2252.18 1463.46 Q2255.63 1463.46 2257.46 1462.09 Q2259.29 1460.7 2259.29 1458.11 Q2259.29 1455.45 2257.39 1454.04 Q2255.51 1452.6 2252 1452.6 Q2250.07 1452.6 2247.88 1453.02 Q2245.68 1453.44 2243.04 1454.31 L2243.04 1450.15 Q2245.7 1449.41 2248.01 1449.04 Q2250.35 1448.67 2252.41 1448.67 Q2257.74 1448.67 2260.84 1451.1 Q2263.94 1453.5 2263.94 1457.63 Q2263.94 1460.5 2262.3 1462.49 Q2260.65 1464.45 2257.62 1465.22 Z" fill="#000000" fill-rule="evenodd" fill-opacity="1" /><path clip-path="url(#clip390)" d="M 0 0 M2279.82 1452.37 Q2276.21 1452.37 2274.38 1455.94 Q2272.57 1459.48 2272.57 1466.61 Q2272.57 1473.71 2274.38 1477.28 Q2276.21 1480.82 2279.82 1480.82 Q2283.45 1480.82 2285.26 1477.28 Q2287.09 1473.71 2287.09 1466.61 Q2287.09 1459.48 2285.26 1455.94 Q2283.45 1452.37 2279.82 1452.37 M2279.82 1448.67 Q2285.63 1448.67 2288.69 1453.27 Q2291.76 1457.86 2291.76 1466.61 Q2291.76 1475.33 2288.69 1479.94 Q2285.63 1484.52 2279.82 1484.52 Q2274.01 1484.52 2270.93 1479.94 Q2267.88 1475.33 2267.88 1466.61 Q2267.88 1457.86 2270.93 1453.27 Q2274.01 1448.67 2279.82 1448.67 Z" fill="#000000" fill-rule="evenodd" fill-opacity="1" /><path clip-path="url(#clip390)" d="M 0 0 M2306.83 1452.37 Q2303.22 1452.37 2301.39 1455.94 Q2299.59 1459.48 2299.59 1466.61 Q2299.59 1473.71 2301.39 1477.28 Q2303.22 1480.82 2306.83 1480.82 Q2310.47 1480.82 2312.27 1477.28 Q2314.1 1473.71 2314.1 1466.61 Q2314.1 1459.48 2312.27 1455.94 Q2310.47 1452.37 2306.83 1452.37 M2306.83 1448.67 Q2312.64 1448.67 2315.7 1453.27 Q2318.78 1457.86 2318.78 1466.61 Q2318.78 1475.33 2315.7 1479.94 Q2312.64 1484.52 2306.83 1484.52 Q2301.02 1484.52 2297.94 1479.94 Q2294.89 1475.33 2294.89 1466.61 Q2294.89 1457.86 2297.94 1453.27 Q2301.02 1448.67 2306.83 1448.67 Z" fill="#000000" fill-rule="evenodd" fill-opacity="1" /><path clip-path="url(#clip390)" d="M 0 0 M2333.85 1452.37 Q2330.24 1452.37 2328.41 1455.94 Q2326.6 1459.48 2326.6 1466.61 Q2326.6 1473.71 2328.41 1477.28 Q2330.24 1480.82 2333.85 1480.82 Q2337.48 1480.82 2339.29 1477.28 Q2341.12 1473.71 2341.12 1466.61 Q2341.12 1459.48 2339.29 1455.94 Q2337.48 1452.37 2333.85 1452.37 M2333.85 1448.67 Q2339.66 1448.67 2342.71 1453.27 Q2345.79 1457.86 2345.79 1466.61 Q2345.79 1475.33 2342.71 1479.94 Q2339.66 1484.52 2333.85 1484.52 Q2328.04 1484.52 2324.96 1479.94 Q2321.9 1475.33 2321.9 1466.61 Q2321.9 1457.86 2324.96 1453.27 Q2328.04 1448.67 2333.85 1448.67 Z" fill="#000000" fill-rule="evenodd" fill-opacity="1" /><path clip-path="url(#clip390)" d="M 0 0 M1287.07 1546.53 L1287.07 1568.04 L1281.22 1568.04 L1281.22 1546.72 Q1281.22 1541.66 1279.24 1539.14 Q1277.27 1536.63 1273.32 1536.63 Q1268.58 1536.63 1265.84 1539.65 Q1263.11 1542.68 1263.11 1547.9 L1263.11 1568.04 L1257.22 1568.04 L1257.22 1532.4 L1263.11 1532.4 L1263.11 1537.93 Q1265.21 1534.72 1268.04 1533.13 Q1270.9 1531.54 1274.63 1531.54 Q1280.77 1531.54 1283.92 1535.36 Q1287.07 1539.14 1287.07 1546.53 Z" fill="#000000" fill-rule="evenodd" fill-opacity="1" /><path clip-path="url(#clip390)" d="M 0 0 M1294.71 1559.96 L1301.43 1559.96 L1301.43 1565.43 L1296.21 1575.62 L1292.1 1575.62 L1294.71 1565.43 L1294.71 1559.96 Z" fill="#000000" fill-rule="evenodd" fill-opacity="1" /><path clip-path="url(#clip390)" d="M 0 0 M1334.97 1525.81 L1334.97 1562.76 L1342.74 1562.76 Q1352.58 1562.76 1357.13 1558.3 Q1361.71 1553.85 1361.71 1544.24 Q1361.71 1534.69 1357.13 1530.26 Q1352.58 1525.81 1342.74 1525.81 L1334.97 1525.81 M1328.55 1520.52 L1341.75 1520.52 Q1355.57 1520.52 1362.03 1526.28 Q1368.49 1532.01 1368.49 1544.24 Q1368.49 1556.52 1362 1562.28 Q1355.5 1568.04 1341.75 1568.04 L1328.55 1568.04 L1328.55 1520.52 Z" fill="#000000" fill-rule="evenodd" fill-opacity="1" /><polyline clip-path="url(#clip392)" style="stroke:#000000; stroke-width:2; stroke-opacity:0.1; fill:none" points="
  272.952,1308.84 2352.76,1308.84 
  "/>
<polyline clip-path="url(#clip392)" style="stroke:#000000; stroke-width:2; stroke-opacity:0.1; fill:none" points="
  272.952,927.411 2352.76,927.411 
  "/>
<polyline clip-path="url(#clip392)" style="stroke:#000000; stroke-width:2; stroke-opacity:0.1; fill:none" points="
  272.952,545.977 2352.76,545.977 
  "/>
<polyline clip-path="url(#clip392)" style="stroke:#000000; stroke-width:2; stroke-opacity:0.1; fill:none" points="
  272.952,164.544 2352.76,164.544 
  "/>
<polyline clip-path="url(#clip390)" style="stroke:#000000; stroke-width:4; stroke-opacity:1; fill:none" points="
  272.952,1423.18 272.952,47.2441 
  "/>
<polyline clip-path="url(#clip390)" style="stroke:#000000; stroke-width:4; stroke-opacity:1; fill:none" points="
  272.952,1308.84 297.91,1308.84 
  "/>
<polyline clip-path="url(#clip390)" style="stroke:#000000; stroke-width:4; stroke-opacity:1; fill:none" points="
  272.952,927.411 297.91,927.411 
  "/>
<polyline clip-path="url(#clip390)" style="stroke:#000000; stroke-width:4; stroke-opacity:1; fill:none" points="
  272.952,545.977 297.91,545.977 
  "/>
<polyline clip-path="url(#clip390)" style="stroke:#000000; stroke-width:4; stroke-opacity:1; fill:none" points="
  272.952,164.544 297.91,164.544 
  "/>
<path clip-path="url(#clip390)" d="M 0 0 M116.041 1328.64 L123.68 1328.64 L123.68 1302.27 L115.37 1303.94 L115.37 1299.68 L123.634 1298.01 L128.31 1298.01 L128.31 1328.64 L135.948 1328.64 L135.948 1332.57 L116.041 1332.57 L116.041 1328.64 Z" fill="#000000" fill-rule="evenodd" fill-opacity="1" /><path clip-path="url(#clip390)" d="M 0 0 M151.018 1301.09 Q147.407 1301.09 145.578 1304.66 Q143.772 1308.2 143.772 1315.33 Q143.772 1322.43 145.578 1326 Q147.407 1329.54 151.018 1329.54 Q154.652 1329.54 156.458 1326 Q158.286 1322.43 158.286 1315.33 Q158.286 1308.2 156.458 1304.66 Q154.652 1301.09 151.018 1301.09 M151.018 1297.39 Q156.828 1297.39 159.883 1301.99 Q162.962 1306.58 162.962 1315.33 Q162.962 1324.05 159.883 1328.66 Q156.828 1333.24 151.018 1333.24 Q145.208 1333.24 142.129 1328.66 Q139.073 1324.05 139.073 1315.33 Q139.073 1306.58 142.129 1301.99 Q145.208 1297.39 151.018 1297.39 Z" fill="#000000" fill-rule="evenodd" fill-opacity="1" /><path clip-path="url(#clip390)" d="M 0 0 M162.962 1291.49 L187.074 1291.49 L187.074 1294.69 L162.962 1294.69 L162.962 1291.49 Z" fill="#000000" fill-rule="evenodd" fill-opacity="1" /><path clip-path="url(#clip390)" d="M 0 0 M194.465 1301.96 L207.725 1301.96 L207.725 1305.16 L189.895 1305.16 L189.895 1301.96 Q192.058 1299.73 195.782 1295.96 Q199.524 1292.18 200.484 1291.09 Q202.308 1289.04 203.023 1287.63 Q203.756 1286.2 203.756 1284.83 Q203.756 1282.59 202.176 1281.18 Q200.615 1279.77 198.095 1279.77 Q196.308 1279.77 194.315 1280.39 Q192.34 1281.01 190.083 1282.27 L190.083 1278.44 Q192.378 1277.51 194.371 1277.04 Q196.365 1276.57 198.02 1276.57 Q202.383 1276.57 204.979 1278.76 Q207.574 1280.94 207.574 1284.59 Q207.574 1286.32 206.916 1287.88 Q206.276 1289.42 204.565 1291.53 Q204.095 1292.07 201.575 1294.69 Q199.054 1297.28 194.465 1301.96 Z" fill="#000000" fill-rule="evenodd" fill-opacity="1" /><path clip-path="url(#clip390)" d="M 0 0 M211.844 1300.38 L215.812 1300.38 L215.812 1305.16 L211.844 1305.16 L211.844 1300.38 Z" fill="#000000" fill-rule="evenodd" fill-opacity="1" /><path clip-path="url(#clip390)" d="M 0 0 M219.969 1277.08 L234.883 1277.08 L234.883 1280.28 L223.448 1280.28 L223.448 1287.16 Q224.275 1286.88 225.103 1286.75 Q225.931 1286.6 226.758 1286.6 Q231.46 1286.6 234.206 1289.18 Q236.952 1291.75 236.952 1296.15 Q236.952 1300.69 234.131 1303.21 Q231.31 1305.71 226.175 1305.71 Q224.407 1305.71 222.564 1305.41 Q220.74 1305.11 218.784 1304.5 L218.784 1300.69 Q220.476 1301.61 222.282 1302.06 Q224.087 1302.51 226.1 1302.51 Q229.354 1302.51 231.253 1300.8 Q233.153 1299.09 233.153 1296.15 Q233.153 1293.22 231.253 1291.51 Q229.354 1289.8 226.1 1289.8 Q224.576 1289.8 223.053 1290.13 Q221.548 1290.47 219.969 1291.19 L219.969 1277.08 Z" fill="#000000" fill-rule="evenodd" fill-opacity="1" /><path clip-path="url(#clip390)" d="M 0 0 M115.232 947.203 L122.871 947.203 L122.871 920.838 L114.561 922.504 L114.561 918.245 L122.825 916.578 L127.501 916.578 L127.501 947.203 L135.14 947.203 L135.14 951.138 L115.232 951.138 L115.232 947.203 Z" fill="#000000" fill-rule="evenodd" fill-opacity="1" /><path clip-path="url(#clip390)" d="M 0 0 M150.209 919.657 Q146.598 919.657 144.769 923.222 Q142.964 926.764 142.964 933.893 Q142.964 941 144.769 944.564 Q146.598 948.106 150.209 948.106 Q153.843 948.106 155.649 944.564 Q157.478 941 157.478 933.893 Q157.478 926.764 155.649 923.222 Q153.843 919.657 150.209 919.657 M150.209 915.953 Q156.019 915.953 159.075 920.56 Q162.153 925.143 162.153 933.893 Q162.153 942.62 159.075 947.226 Q156.019 951.81 150.209 951.81 Q144.399 951.81 141.32 947.226 Q138.265 942.62 138.265 933.893 Q138.265 925.143 141.32 920.56 Q144.399 915.953 150.209 915.953 Z" fill="#000000" fill-rule="evenodd" fill-opacity="1" /><path clip-path="url(#clip390)" d="M 0 0 M162.153 910.055 L186.265 910.055 L186.265 913.252 L162.153 913.252 L162.153 910.055 Z" fill="#000000" fill-rule="evenodd" fill-opacity="1" /><path clip-path="url(#clip390)" d="M 0 0 M193.656 920.531 L206.916 920.531 L206.916 923.728 L189.086 923.728 L189.086 920.531 Q191.249 918.293 194.973 914.531 Q198.716 910.751 199.675 909.66 Q201.499 907.61 202.214 906.199 Q202.947 904.77 202.947 903.397 Q202.947 901.159 201.368 899.748 Q199.807 898.338 197.286 898.338 Q195.5 898.338 193.506 898.958 Q191.531 899.579 189.274 900.839 L189.274 897.002 Q191.569 896.081 193.562 895.61 Q195.556 895.14 197.211 895.14 Q201.575 895.14 204.17 897.322 Q206.765 899.504 206.765 903.152 Q206.765 904.883 206.107 906.444 Q205.468 907.986 203.756 910.092 Q203.286 910.638 200.766 913.252 Q198.246 915.848 193.656 920.531 Z" fill="#000000" fill-rule="evenodd" fill-opacity="1" /><path clip-path="url(#clip390)" d="M 0 0 M211.035 918.951 L215.003 918.951 L215.003 923.728 L211.035 923.728 L211.035 918.951 Z" fill="#000000" fill-rule="evenodd" fill-opacity="1" /><path clip-path="url(#clip390)" d="M 0 0 M227.247 898.15 Q224.313 898.15 222.827 901.046 Q221.36 903.924 221.36 909.716 Q221.36 915.49 222.827 918.387 Q224.313 921.264 227.247 921.264 Q230.2 921.264 231.667 918.387 Q233.153 915.49 233.153 909.716 Q233.153 903.924 231.667 901.046 Q230.2 898.15 227.247 898.15 M227.247 895.14 Q231.968 895.14 234.45 898.883 Q236.952 902.607 236.952 909.716 Q236.952 916.807 234.45 920.55 Q231.968 924.274 227.247 924.274 Q222.526 924.274 220.025 920.55 Q217.542 916.807 217.542 909.716 Q217.542 902.607 220.025 898.883 Q222.526 895.14 227.247 895.14 Z" fill="#000000" fill-rule="evenodd" fill-opacity="1" /><path clip-path="url(#clip390)" d="M 0 0 M115.74 565.77 L123.379 565.77 L123.379 539.404 L115.069 541.071 L115.069 536.811 L123.333 535.145 L128.009 535.145 L128.009 565.77 L135.647 565.77 L135.647 569.705 L115.74 569.705 L115.74 565.77 Z" fill="#000000" fill-rule="evenodd" fill-opacity="1" /><path clip-path="url(#clip390)" d="M 0 0 M150.717 538.224 Q147.106 538.224 145.277 541.788 Q143.472 545.33 143.472 552.46 Q143.472 559.566 145.277 563.131 Q147.106 566.672 150.717 566.672 Q154.351 566.672 156.157 563.131 Q157.985 559.566 157.985 552.46 Q157.985 545.33 156.157 541.788 Q154.351 538.224 150.717 538.224 M150.717 534.52 Q156.527 534.52 159.583 539.126 Q162.661 543.71 162.661 552.46 Q162.661 561.186 159.583 565.793 Q156.527 570.376 150.717 570.376 Q144.907 570.376 141.828 565.793 Q138.772 561.186 138.772 552.46 Q138.772 543.71 141.828 539.126 Q144.907 534.52 150.717 534.52 Z" fill="#000000" fill-rule="evenodd" fill-opacity="1" /><path clip-path="url(#clip390)" d="M 0 0 M162.661 528.621 L186.773 528.621 L186.773 531.819 L162.661 531.819 L162.661 528.621 Z" fill="#000000" fill-rule="evenodd" fill-opacity="1" /><path clip-path="url(#clip390)" d="M 0 0 M191.55 539.097 L197.757 539.097 L197.757 517.675 L191.005 519.029 L191.005 515.569 L197.719 514.214 L201.518 514.214 L201.518 539.097 L207.725 539.097 L207.725 542.294 L191.55 542.294 L191.55 539.097 Z" fill="#000000" fill-rule="evenodd" fill-opacity="1" /><path clip-path="url(#clip390)" d="M 0 0 M211.844 537.517 L215.812 537.517 L215.812 542.294 L211.844 542.294 L211.844 537.517 Z" fill="#000000" fill-rule="evenodd" fill-opacity="1" /><path clip-path="url(#clip390)" d="M 0 0 M219.969 514.214 L234.883 514.214 L234.883 517.412 L223.448 517.412 L223.448 524.295 Q224.275 524.013 225.103 523.882 Q225.931 523.731 226.758 523.731 Q231.46 523.731 234.206 526.308 Q236.952 528.884 236.952 533.286 Q236.952 537.818 234.131 540.338 Q231.31 542.84 226.175 542.84 Q224.407 542.84 222.564 542.539 Q220.74 542.238 218.784 541.636 L218.784 537.818 Q220.476 538.74 222.282 539.191 Q224.087 539.643 226.1 539.643 Q229.354 539.643 231.253 537.931 Q233.153 536.22 233.153 533.286 Q233.153 530.351 231.253 528.64 Q229.354 526.928 226.1 526.928 Q224.576 526.928 223.053 527.267 Q221.548 527.606 219.969 528.32 L219.969 514.214 Z" fill="#000000" fill-rule="evenodd" fill-opacity="1" /><path clip-path="url(#clip390)" d="M 0 0 M114.931 184.336 L122.57 184.336 L122.57 157.97 L114.26 159.637 L114.26 155.378 L122.524 153.711 L127.2 153.711 L127.2 184.336 L134.839 184.336 L134.839 188.271 L114.931 188.271 L114.931 184.336 Z" fill="#000000" fill-rule="evenodd" fill-opacity="1" /><path clip-path="url(#clip390)" d="M 0 0 M149.908 156.79 Q146.297 156.79 144.468 160.355 Q142.663 163.896 142.663 171.026 Q142.663 178.132 144.468 181.697 Q146.297 185.239 149.908 185.239 Q153.542 185.239 155.348 181.697 Q157.177 178.132 157.177 171.026 Q157.177 163.896 155.348 160.355 Q153.542 156.79 149.908 156.79 M149.908 153.086 Q155.718 153.086 158.774 157.693 Q161.852 162.276 161.852 171.026 Q161.852 179.753 158.774 184.359 Q155.718 188.942 149.908 188.942 Q144.098 188.942 141.019 184.359 Q137.964 179.753 137.964 171.026 Q137.964 162.276 141.019 157.693 Q144.098 153.086 149.908 153.086 Z" fill="#000000" fill-rule="evenodd" fill-opacity="1" /><path clip-path="url(#clip390)" d="M 0 0 M161.852 147.188 L185.964 147.188 L185.964 150.385 L161.852 150.385 L161.852 147.188 Z" fill="#000000" fill-rule="evenodd" fill-opacity="1" /><path clip-path="url(#clip390)" d="M 0 0 M190.741 157.663 L196.948 157.663 L196.948 136.241 L190.196 137.596 L190.196 134.135 L196.91 132.781 L200.709 132.781 L200.709 157.663 L206.916 157.663 L206.916 160.861 L190.741 160.861 L190.741 157.663 Z" fill="#000000" fill-rule="evenodd" fill-opacity="1" /><path clip-path="url(#clip390)" d="M 0 0 M211.035 156.084 L215.003 156.084 L215.003 160.861 L211.035 160.861 L211.035 156.084 Z" fill="#000000" fill-rule="evenodd" fill-opacity="1" /><path clip-path="url(#clip390)" d="M 0 0 M227.247 135.282 Q224.313 135.282 222.827 138.179 Q221.36 141.056 221.36 146.849 Q221.36 152.623 222.827 155.519 Q224.313 158.397 227.247 158.397 Q230.2 158.397 231.667 155.519 Q233.153 152.623 233.153 146.849 Q233.153 141.056 231.667 138.179 Q230.2 135.282 227.247 135.282 M227.247 132.273 Q231.968 132.273 234.45 136.016 Q236.952 139.74 236.952 146.849 Q236.952 153.94 234.45 157.682 Q231.968 161.406 227.247 161.406 Q222.526 161.406 220.025 157.682 Q217.542 153.94 217.542 146.849 Q217.542 139.74 220.025 136.016 Q222.526 132.273 227.247 132.273 Z" fill="#000000" fill-rule="evenodd" fill-opacity="1" /><path clip-path="url(#clip390)" d="M 0 0 M44.7161 775.762 L47.5806 775.762 L47.5806 802.688 Q53.6281 802.307 56.8109 799.06 Q59.9619 795.782 59.9619 789.957 Q59.9619 786.583 59.1344 783.432 Q58.3069 780.249 56.6518 777.13 L62.1899 777.13 Q63.5267 780.281 64.227 783.591 Q64.9272 786.902 64.9272 790.307 Q64.9272 798.837 59.9619 803.834 Q54.9967 808.8 46.5303 808.8 Q37.7774 808.8 32.6531 804.089 Q27.4968 799.346 27.4968 791.326 Q27.4968 784.132 32.1438 779.963 Q36.7589 775.762 44.7161 775.762 M42.9973 781.618 Q38.1912 781.682 35.3266 784.323 Q32.4621 786.933 32.4621 791.262 Q32.4621 796.164 35.2312 799.124 Q38.0002 802.052 43.0292 802.497 L42.9973 781.618 Z" fill="#000000" fill-rule="evenodd" fill-opacity="1" /><path clip-path="url(#clip390)" d="M 0 0 M33.8307 748.962 Q33.2578 749.949 33.0032 751.126 Q32.7167 752.272 32.7167 753.673 Q32.7167 758.638 35.9632 761.311 Q39.1779 763.953 45.2253 763.953 L64.0042 763.953 L64.0042 769.841 L28.3562 769.841 L28.3562 763.953 L33.8944 763.953 Q30.6479 762.107 29.0883 759.147 Q27.4968 756.187 27.4968 751.954 Q27.4968 751.349 27.5923 750.617 Q27.656 749.885 27.8151 748.994 L33.8307 748.962 Z" fill="#000000" fill-rule="evenodd" fill-opacity="1" /><path clip-path="url(#clip390)" d="M 0 0 M33.8307 723.308 Q33.2578 724.295 33.0032 725.472 Q32.7167 726.618 32.7167 728.019 Q32.7167 732.984 35.9632 735.658 Q39.1779 738.299 45.2253 738.299 L64.0042 738.299 L64.0042 744.188 L28.3562 744.188 L28.3562 738.299 L33.8944 738.299 Q30.6479 736.453 29.0883 733.493 Q27.4968 730.533 27.4968 726.3 Q27.4968 725.695 27.5923 724.963 Q27.656 724.231 27.8151 723.34 L33.8307 723.308 Z" fill="#000000" fill-rule="evenodd" fill-opacity="1" /><path clip-path="url(#clip390)" d="M 0 0 M32.4621 704.784 Q32.4621 709.495 36.1542 712.232 Q39.8145 714.969 46.212 714.969 Q52.6095 714.969 56.3017 712.264 Q59.9619 709.526 59.9619 704.784 Q59.9619 700.105 56.2698 697.368 Q52.5777 694.631 46.212 694.631 Q39.8781 694.631 36.186 697.368 Q32.4621 700.105 32.4621 704.784 M27.4968 704.784 Q27.4968 697.145 32.4621 692.785 Q37.4273 688.424 46.212 688.424 Q54.9649 688.424 59.9619 692.785 Q64.9272 697.145 64.9272 704.784 Q64.9272 712.455 59.9619 716.815 Q54.9649 721.144 46.212 721.144 Q37.4273 721.144 32.4621 716.815 Q27.4968 712.455 27.4968 704.784 Z" fill="#000000" fill-rule="evenodd" fill-opacity="1" /><path clip-path="url(#clip390)" d="M 0 0 M33.8307 661.624 Q33.2578 662.611 33.0032 663.789 Q32.7167 664.935 32.7167 666.335 Q32.7167 671.3 35.9632 673.974 Q39.1779 676.616 45.2253 676.616 L64.0042 676.616 L64.0042 682.504 L28.3562 682.504 L28.3562 676.616 L33.8944 676.616 Q30.6479 674.77 29.0883 671.81 Q27.4968 668.849 27.4968 664.616 Q27.4968 664.012 27.5923 663.279 Q27.656 662.547 27.8151 661.656 L33.8307 661.624 Z" fill="#000000" fill-rule="evenodd" fill-opacity="1" /><polyline clip-path="url(#clip392)" style="stroke:#009af9; stroke-width:4; stroke-opacity:1; fill:none" points="
  331.814,86.1857 365.07,282.949 398.325,417.241 431.581,499.894 464.837,547.918 498.092,620.423 531.348,662.421 564.603,703.979 597.859,728.906 631.115,781.489 
  664.37,821.821 697.626,810.329 730.881,859.574 764.137,884.373 797.392,908.899 830.648,901.601 863.904,934.177 897.159,954.144 930.415,982.657 963.67,986.62 
  996.926,1008.77 1030.18,1022.74 1063.44,1060.37 1096.69,1055.15 1129.95,1055.21 1163.2,1084.48 1196.46,1106.33 1229.71,1113.17 1262.97,1121.19 1296.23,1148.13 
  1329.48,1147.7 1362.74,1150.31 1395.99,1161.13 1429.25,1165.47 1462.5,1179.38 1495.76,1195.88 1529.02,1201.95 1562.27,1219.61 1595.53,1196.53 1628.78,1230.23 
  1662.04,1214.4 1695.29,1251.77 1728.55,1237.91 1761.8,1237.69 1795.06,1274.25 1828.32,1261.53 1861.57,1276.92 1894.83,1273.58 1928.08,1282.12 1961.34,1301.31 
  1994.59,1291 2027.85,1297.3 2061.1,1331.46 2094.36,1322.34 2127.62,1323.64 2160.87,1324.89 2194.13,1339.9 2227.38,1348.97 2260.64,1358.1 2293.89,1347.63 
  
  "/>
<polyline clip-path="url(#clip392)" style="stroke:#e26f46; stroke-width:4; stroke-opacity:1; fill:none" points="
  331.814,846.904 365.07,828.565 398.325,811.663 431.581,798.373 464.837,772.437 498.092,782.589 531.348,771.07 564.603,778.536 597.859,770.794 631.115,773.311 
  664.37,787.246 697.626,775.923 730.881,765.466 764.137,757.231 797.392,762.064 830.648,761.635 863.904,765.119 897.159,764.701 930.415,774.137 963.67,782.016 
  996.926,770.501 1030.18,762.694 1063.44,762.242 1096.69,764.218 1129.95,764.03 1163.2,777.441 1196.46,779.136 1229.71,761.403 1262.97,755.15 1296.23,782.692 
  1329.48,755.351 1362.74,765.3 1395.99,773.652 1429.25,775.662 1462.5,754.509 1495.76,771.794 1529.02,752.247 1562.27,764.681 1595.53,755.959 1628.78,756.703 
  1662.04,767.929 1695.29,779.184 1728.55,761.692 1761.8,772.894 1795.06,769.249 1828.32,777.186 1861.57,755.682 1894.83,768.544 1928.08,771.292 1961.34,751.432 
  1994.59,772.488 2027.85,762.623 2061.1,761.907 2094.36,762.45 2127.62,766.391 2160.87,767.732 2194.13,760.695 2227.38,786.755 2260.64,766.62 2293.89,768.182 
  
  "/>
<polyline clip-path="url(#clip392)" style="stroke:#3da44d; stroke-width:4; stroke-opacity:1; fill:none" points="
  331.814,1384.24 365.07,1332.46 398.325,1330.84 431.581,1299.57 464.837,1309.47 498.092,1317.93 531.348,1311.62 564.603,1295.81 597.859,1294.87 631.115,1291.43 
  664.37,1289 697.626,1290.67 730.881,1300.83 764.137,1277.51 797.392,1289.73 830.648,1285.59 863.904,1287.44 897.159,1288.75 930.415,1279.22 963.67,1282.2 
  996.926,1294.92 1030.18,1280.32 1063.44,1276.12 1096.69,1282.42 1129.95,1274.84 1163.2,1276.65 1196.46,1267.38 1229.71,1270.79 1262.97,1278.54 1296.23,1273.48 
  1329.48,1274.9 1362.74,1266.8 1395.99,1266.32 1429.25,1276.03 1462.5,1277.52 1495.76,1284.67 1529.02,1276.7 1562.27,1280.64 1595.53,1267.46 1628.78,1279.31 
  1662.04,1280.33 1695.29,1274.57 1728.55,1284.03 1761.8,1261.24 1795.06,1263.39 1828.32,1275.36 1861.57,1265.27 1894.83,1279 1928.08,1277.53 1961.34,1257.14 
  1994.59,1270.03 2027.85,1270.12 2061.1,1271.02 2094.36,1279.59 2127.62,1278.95 2160.87,1259.5 2194.13,1259.27 2227.38,1269.13 2260.64,1272.31 2293.89,1267.34 
  
  "/>
<path clip-path="url(#clip390)" d="
M1659.96 335.029 L2283.43 335.029 L2283.43 93.1086 L1659.96 93.1086  Z
  " fill="#ffffff" fill-rule="evenodd" fill-opacity="1"/>
<polyline clip-path="url(#clip390)" style="stroke:#000000; stroke-width:4; stroke-opacity:1; fill:none" points="
  1659.96,335.029 2283.43,335.029 2283.43,93.1086 1659.96,93.1086 1659.96,335.029 
  "/>
<polyline clip-path="url(#clip390)" style="stroke:#009af9; stroke-width:4; stroke-opacity:1; fill:none" points="
  1683.07,153.589 1821.72,153.589 
  "/>
<path clip-path="url(#clip390)" d="M 0 0 M1865.34 145.938 L1865.34 149.92 Q1863.53 148.924 1861.7 148.438 Q1859.9 147.929 1858.05 147.929 Q1853.9 147.929 1851.61 150.568 Q1849.32 153.184 1849.32 157.929 Q1849.32 162.674 1851.61 165.313 Q1853.9 167.929 1858.05 167.929 Q1859.9 167.929 1861.7 167.443 Q1863.53 166.933 1865.34 165.938 L1865.34 169.873 Q1863.56 170.707 1861.63 171.123 Q1859.74 171.54 1857.58 171.54 Q1851.73 171.54 1848.28 167.859 Q1844.83 164.179 1844.83 157.929 Q1844.83 151.586 1848.3 147.952 Q1851.8 144.318 1857.86 144.318 Q1859.83 144.318 1861.7 144.735 Q1863.58 145.128 1865.34 145.938 Z" fill="#000000" fill-rule="evenodd" fill-opacity="1" /><path clip-path="url(#clip390)" d="M 0 0 M1879.85 147.929 Q1876.43 147.929 1874.44 150.614 Q1872.44 153.276 1872.44 157.929 Q1872.44 162.582 1874.41 165.267 Q1876.4 167.929 1879.85 167.929 Q1883.25 167.929 1885.25 165.244 Q1887.24 162.558 1887.24 157.929 Q1887.24 153.322 1885.25 150.637 Q1883.25 147.929 1879.85 147.929 M1879.85 144.318 Q1885.41 144.318 1888.58 147.929 Q1891.75 151.54 1891.75 157.929 Q1891.75 164.295 1888.58 167.929 Q1885.41 171.54 1879.85 171.54 Q1874.27 171.54 1871.1 167.929 Q1867.95 164.295 1867.95 157.929 Q1867.95 151.54 1871.1 147.929 Q1874.27 144.318 1879.85 144.318 Z" fill="#000000" fill-rule="evenodd" fill-opacity="1" /><path clip-path="url(#clip390)" d="M 0 0 M1917.77 155.221 L1917.77 170.869 L1913.51 170.869 L1913.51 155.359 Q1913.51 151.679 1912.07 149.85 Q1910.64 148.022 1907.77 148.022 Q1904.32 148.022 1902.33 150.221 Q1900.34 152.42 1900.34 156.216 L1900.34 170.869 L1896.06 170.869 L1896.06 144.943 L1900.34 144.943 L1900.34 148.971 Q1901.87 146.633 1903.93 145.475 Q1906.01 144.318 1908.72 144.318 Q1913.19 144.318 1915.48 147.096 Q1917.77 149.85 1917.77 155.221 Z" fill="#000000" fill-rule="evenodd" fill-opacity="1" /><path clip-path="url(#clip390)" d="M 0 0 M1938.76 145.707 L1938.76 149.734 Q1936.96 148.809 1935.01 148.346 Q1933.07 147.883 1930.99 147.883 Q1927.81 147.883 1926.22 148.855 Q1924.64 149.827 1924.64 151.771 Q1924.64 153.253 1925.78 154.109 Q1926.91 154.943 1930.34 155.707 L1931.8 156.031 Q1936.33 157.003 1938.23 158.785 Q1940.15 160.545 1940.15 163.716 Q1940.15 167.327 1937.28 169.433 Q1934.44 171.54 1929.44 171.54 Q1927.35 171.54 1925.08 171.123 Q1922.84 170.73 1920.34 169.92 L1920.34 165.521 Q1922.7 166.748 1924.99 167.373 Q1927.28 167.975 1929.53 167.975 Q1932.54 167.975 1934.16 166.957 Q1935.78 165.915 1935.78 164.04 Q1935.78 162.304 1934.6 161.378 Q1933.44 160.452 1929.48 159.596 L1928 159.248 Q1924.04 158.415 1922.28 156.702 Q1920.52 154.966 1920.52 151.957 Q1920.52 148.299 1923.12 146.309 Q1925.71 144.318 1930.48 144.318 Q1932.84 144.318 1934.92 144.665 Q1937 145.012 1938.76 145.707 Z" fill="#000000" fill-rule="evenodd" fill-opacity="1" /><path clip-path="url(#clip390)" d="M 0 0 M1948.83 137.582 L1948.83 144.943 L1957.61 144.943 L1957.61 148.253 L1948.83 148.253 L1948.83 162.327 Q1948.83 165.498 1949.69 166.401 Q1950.57 167.304 1953.23 167.304 L1957.61 167.304 L1957.61 170.869 L1953.23 170.869 Q1948.3 170.869 1946.43 169.04 Q1944.55 167.188 1944.55 162.327 L1944.55 148.253 L1941.43 148.253 L1941.43 144.943 L1944.55 144.943 L1944.55 137.582 L1948.83 137.582 Z" fill="#000000" fill-rule="evenodd" fill-opacity="1" /><path clip-path="url(#clip390)" d="M 0 0 M1973.86 157.836 Q1968.69 157.836 1966.7 159.017 Q1964.71 160.197 1964.71 163.045 Q1964.71 165.313 1966.19 166.656 Q1967.7 167.975 1970.27 167.975 Q1973.81 167.975 1975.94 165.475 Q1978.09 162.952 1978.09 158.785 L1978.09 157.836 L1973.86 157.836 M1982.35 156.077 L1982.35 170.869 L1978.09 170.869 L1978.09 166.933 Q1976.63 169.295 1974.46 170.429 Q1972.28 171.54 1969.13 171.54 Q1965.15 171.54 1962.79 169.318 Q1960.45 167.072 1960.45 163.322 Q1960.45 158.947 1963.37 156.725 Q1966.31 154.503 1972.12 154.503 L1978.09 154.503 L1978.09 154.086 Q1978.09 151.147 1976.15 149.549 Q1974.23 147.929 1970.73 147.929 Q1968.51 147.929 1966.4 148.461 Q1964.3 148.994 1962.35 150.059 L1962.35 146.123 Q1964.69 145.221 1966.89 144.781 Q1969.09 144.318 1971.17 144.318 Q1976.8 144.318 1979.57 147.234 Q1982.35 150.151 1982.35 156.077 Z" fill="#000000" fill-rule="evenodd" fill-opacity="1" /><path clip-path="url(#clip390)" d="M 0 0 M2008.37 155.221 L2008.37 170.869 L2004.11 170.869 L2004.11 155.359 Q2004.11 151.679 2002.68 149.85 Q2001.24 148.022 1998.37 148.022 Q1994.92 148.022 1992.93 150.221 Q1990.94 152.42 1990.94 156.216 L1990.94 170.869 L1986.66 170.869 L1986.66 144.943 L1990.94 144.943 L1990.94 148.971 Q1992.47 146.633 1994.53 145.475 Q1996.61 144.318 1999.32 144.318 Q2003.79 144.318 2006.08 147.096 Q2008.37 149.85 2008.37 155.221 Z" fill="#000000" fill-rule="evenodd" fill-opacity="1" /><path clip-path="url(#clip390)" d="M 0 0 M2017.05 137.582 L2017.05 144.943 L2025.82 144.943 L2025.82 148.253 L2017.05 148.253 L2017.05 162.327 Q2017.05 165.498 2017.91 166.401 Q2018.79 167.304 2021.45 167.304 L2025.82 167.304 L2025.82 170.869 L2021.45 170.869 Q2016.52 170.869 2014.64 169.04 Q2012.77 167.188 2012.77 162.327 L2012.77 148.253 L2009.64 148.253 L2009.64 144.943 L2012.77 144.943 L2012.77 137.582 L2017.05 137.582 Z" fill="#000000" fill-rule="evenodd" fill-opacity="1" /><path clip-path="url(#clip390)" d="M 0 0 M2050.22 140.151 L2050.22 167.026 L2055.87 167.026 Q2063.02 167.026 2066.33 163.785 Q2069.67 160.545 2069.67 153.554 Q2069.67 146.609 2066.33 143.392 Q2063.02 140.151 2055.87 140.151 L2050.22 140.151 M2045.55 136.309 L2055.15 136.309 Q2065.2 136.309 2069.9 140.498 Q2074.6 144.665 2074.6 153.554 Q2074.6 162.489 2069.87 166.679 Q2065.15 170.869 2055.15 170.869 L2045.55 170.869 L2045.55 136.309 Z" fill="#000000" fill-rule="evenodd" fill-opacity="1" /><path clip-path="url(#clip390)" d="M 0 0 M2094.69 149.341 L2124.36 149.341 L2124.36 153.23 L2094.69 153.23 L2094.69 149.341 M2094.69 158.785 L2124.36 158.785 L2124.36 162.721 L2094.69 162.721 L2094.69 158.785 Z" fill="#000000" fill-rule="evenodd" fill-opacity="1" /><path clip-path="url(#clip390)" d="M 0 0 M2144.55 136.309 L2162.91 136.309 L2162.91 140.244 L2148.83 140.244 L2148.83 148.716 Q2149.85 148.369 2150.87 148.207 Q2151.89 148.022 2152.91 148.022 Q2158.69 148.022 2162.07 151.193 Q2165.45 154.364 2165.45 159.781 Q2165.45 165.359 2161.98 168.461 Q2158.51 171.54 2152.19 171.54 Q2150.01 171.54 2147.74 171.17 Q2145.5 170.799 2143.09 170.058 L2143.09 165.359 Q2145.17 166.494 2147.4 167.049 Q2149.62 167.605 2152.1 167.605 Q2156.1 167.605 2158.44 165.498 Q2160.78 163.392 2160.78 159.781 Q2160.78 156.17 2158.44 154.063 Q2156.1 151.957 2152.1 151.957 Q2150.22 151.957 2148.35 152.373 Q2146.49 152.79 2144.55 153.67 L2144.55 136.309 Z" fill="#000000" fill-rule="evenodd" fill-opacity="1" /><path clip-path="url(#clip390)" d="M 0 0 M2180.52 139.387 Q2176.91 139.387 2175.08 142.952 Q2173.28 146.494 2173.28 153.623 Q2173.28 160.73 2175.08 164.295 Q2176.91 167.836 2180.52 167.836 Q2184.16 167.836 2185.96 164.295 Q2187.79 160.73 2187.79 153.623 Q2187.79 146.494 2185.96 142.952 Q2184.16 139.387 2180.52 139.387 M2180.52 135.684 Q2186.33 135.684 2189.39 140.29 Q2192.47 144.873 2192.47 153.623 Q2192.47 162.35 2189.39 166.957 Q2186.33 171.54 2180.52 171.54 Q2174.71 171.54 2171.63 166.957 Q2168.58 162.35 2168.58 153.623 Q2168.58 144.873 2171.63 140.29 Q2174.71 135.684 2180.52 135.684 Z" fill="#000000" fill-rule="evenodd" fill-opacity="1" /><path clip-path="url(#clip390)" d="M 0 0 M2207.54 139.387 Q2203.92 139.387 2202.1 142.952 Q2200.29 146.494 2200.29 153.623 Q2200.29 160.73 2202.1 164.295 Q2203.92 167.836 2207.54 167.836 Q2211.17 167.836 2212.98 164.295 Q2214.8 160.73 2214.8 153.623 Q2214.8 146.494 2212.98 142.952 Q2211.17 139.387 2207.54 139.387 M2207.54 135.684 Q2213.35 135.684 2216.4 140.29 Q2219.48 144.873 2219.48 153.623 Q2219.48 162.35 2216.4 166.957 Q2213.35 171.54 2207.54 171.54 Q2201.73 171.54 2198.65 166.957 Q2195.59 162.35 2195.59 153.623 Q2195.59 144.873 2198.65 140.29 Q2201.73 135.684 2207.54 135.684 Z" fill="#000000" fill-rule="evenodd" fill-opacity="1" /><polyline clip-path="url(#clip390)" style="stroke:#e26f46; stroke-width:4; stroke-opacity:1; fill:none" points="
  1683.07,214.069 1821.72,214.069 
  "/>
<path clip-path="url(#clip390)" d="M 0 0 M1865.34 206.418 L1865.34 210.4 Q1863.53 209.404 1861.7 208.918 Q1859.9 208.409 1858.05 208.409 Q1853.9 208.409 1851.61 211.048 Q1849.32 213.664 1849.32 218.409 Q1849.32 223.154 1851.61 225.793 Q1853.9 228.409 1858.05 228.409 Q1859.9 228.409 1861.7 227.923 Q1863.53 227.413 1865.34 226.418 L1865.34 230.353 Q1863.56 231.187 1861.63 231.603 Q1859.74 232.02 1857.58 232.02 Q1851.73 232.02 1848.28 228.339 Q1844.83 224.659 1844.83 218.409 Q1844.83 212.066 1848.3 208.432 Q1851.8 204.798 1857.86 204.798 Q1859.83 204.798 1861.7 205.215 Q1863.58 205.608 1865.34 206.418 Z" fill="#000000" fill-rule="evenodd" fill-opacity="1" /><path clip-path="url(#clip390)" d="M 0 0 M1879.85 208.409 Q1876.43 208.409 1874.44 211.094 Q1872.44 213.756 1872.44 218.409 Q1872.44 223.062 1874.41 225.747 Q1876.4 228.409 1879.85 228.409 Q1883.25 228.409 1885.25 225.724 Q1887.24 223.038 1887.24 218.409 Q1887.24 213.802 1885.25 211.117 Q1883.25 208.409 1879.85 208.409 M1879.85 204.798 Q1885.41 204.798 1888.58 208.409 Q1891.75 212.02 1891.75 218.409 Q1891.75 224.775 1888.58 228.409 Q1885.41 232.02 1879.85 232.02 Q1874.27 232.02 1871.1 228.409 Q1867.95 224.775 1867.95 218.409 Q1867.95 212.02 1871.1 208.409 Q1874.27 204.798 1879.85 204.798 Z" fill="#000000" fill-rule="evenodd" fill-opacity="1" /><path clip-path="url(#clip390)" d="M 0 0 M1917.77 215.701 L1917.77 231.349 L1913.51 231.349 L1913.51 215.839 Q1913.51 212.159 1912.07 210.33 Q1910.64 208.502 1907.77 208.502 Q1904.32 208.502 1902.33 210.701 Q1900.34 212.9 1900.34 216.696 L1900.34 231.349 L1896.06 231.349 L1896.06 205.423 L1900.34 205.423 L1900.34 209.451 Q1901.87 207.113 1903.93 205.955 Q1906.01 204.798 1908.72 204.798 Q1913.19 204.798 1915.48 207.576 Q1917.77 210.33 1917.77 215.701 Z" fill="#000000" fill-rule="evenodd" fill-opacity="1" /><path clip-path="url(#clip390)" d="M 0 0 M1938.76 206.187 L1938.76 210.214 Q1936.96 209.289 1935.01 208.826 Q1933.07 208.363 1930.99 208.363 Q1927.81 208.363 1926.22 209.335 Q1924.64 210.307 1924.64 212.251 Q1924.64 213.733 1925.78 214.589 Q1926.91 215.423 1930.34 216.187 L1931.8 216.511 Q1936.33 217.483 1938.23 219.265 Q1940.15 221.025 1940.15 224.196 Q1940.15 227.807 1937.28 229.913 Q1934.44 232.02 1929.44 232.02 Q1927.35 232.02 1925.08 231.603 Q1922.84 231.21 1920.34 230.4 L1920.34 226.001 Q1922.7 227.228 1924.99 227.853 Q1927.28 228.455 1929.53 228.455 Q1932.54 228.455 1934.16 227.437 Q1935.78 226.395 1935.78 224.52 Q1935.78 222.784 1934.6 221.858 Q1933.44 220.932 1929.48 220.076 L1928 219.728 Q1924.04 218.895 1922.28 217.182 Q1920.52 215.446 1920.52 212.437 Q1920.52 208.779 1923.12 206.789 Q1925.71 204.798 1930.48 204.798 Q1932.84 204.798 1934.92 205.145 Q1937 205.492 1938.76 206.187 Z" fill="#000000" fill-rule="evenodd" fill-opacity="1" /><path clip-path="url(#clip390)" d="M 0 0 M1948.83 198.062 L1948.83 205.423 L1957.61 205.423 L1957.61 208.733 L1948.83 208.733 L1948.83 222.807 Q1948.83 225.978 1949.69 226.881 Q1950.57 227.784 1953.23 227.784 L1957.61 227.784 L1957.61 231.349 L1953.23 231.349 Q1948.3 231.349 1946.43 229.52 Q1944.55 227.668 1944.55 222.807 L1944.55 208.733 L1941.43 208.733 L1941.43 205.423 L1944.55 205.423 L1944.55 198.062 L1948.83 198.062 Z" fill="#000000" fill-rule="evenodd" fill-opacity="1" /><path clip-path="url(#clip390)" d="M 0 0 M1973.86 218.316 Q1968.69 218.316 1966.7 219.497 Q1964.71 220.677 1964.71 223.525 Q1964.71 225.793 1966.19 227.136 Q1967.7 228.455 1970.27 228.455 Q1973.81 228.455 1975.94 225.955 Q1978.09 223.432 1978.09 219.265 L1978.09 218.316 L1973.86 218.316 M1982.35 216.557 L1982.35 231.349 L1978.09 231.349 L1978.09 227.413 Q1976.63 229.775 1974.46 230.909 Q1972.28 232.02 1969.13 232.02 Q1965.15 232.02 1962.79 229.798 Q1960.45 227.552 1960.45 223.802 Q1960.45 219.427 1963.37 217.205 Q1966.31 214.983 1972.12 214.983 L1978.09 214.983 L1978.09 214.566 Q1978.09 211.627 1976.15 210.029 Q1974.23 208.409 1970.73 208.409 Q1968.51 208.409 1966.4 208.941 Q1964.3 209.474 1962.35 210.539 L1962.35 206.603 Q1964.69 205.701 1966.89 205.261 Q1969.09 204.798 1971.17 204.798 Q1976.8 204.798 1979.57 207.714 Q1982.35 210.631 1982.35 216.557 Z" fill="#000000" fill-rule="evenodd" fill-opacity="1" /><path clip-path="url(#clip390)" d="M 0 0 M2008.37 215.701 L2008.37 231.349 L2004.11 231.349 L2004.11 215.839 Q2004.11 212.159 2002.68 210.33 Q2001.24 208.502 1998.37 208.502 Q1994.92 208.502 1992.93 210.701 Q1990.94 212.9 1990.94 216.696 L1990.94 231.349 L1986.66 231.349 L1986.66 205.423 L1990.94 205.423 L1990.94 209.451 Q1992.47 207.113 1994.53 205.955 Q1996.61 204.798 1999.32 204.798 Q2003.79 204.798 2006.08 207.576 Q2008.37 210.33 2008.37 215.701 Z" fill="#000000" fill-rule="evenodd" fill-opacity="1" /><path clip-path="url(#clip390)" d="M 0 0 M2017.05 198.062 L2017.05 205.423 L2025.82 205.423 L2025.82 208.733 L2017.05 208.733 L2017.05 222.807 Q2017.05 225.978 2017.91 226.881 Q2018.79 227.784 2021.45 227.784 L2025.82 227.784 L2025.82 231.349 L2021.45 231.349 Q2016.52 231.349 2014.64 229.52 Q2012.77 227.668 2012.77 222.807 L2012.77 208.733 L2009.64 208.733 L2009.64 205.423 L2012.77 205.423 L2012.77 198.062 L2017.05 198.062 Z" fill="#000000" fill-rule="evenodd" fill-opacity="1" /><path clip-path="url(#clip390)" d="M 0 0 M2066.91 215.701 L2066.91 231.349 L2062.65 231.349 L2062.65 215.839 Q2062.65 212.159 2061.22 210.33 Q2059.78 208.502 2056.91 208.502 Q2053.46 208.502 2051.47 210.701 Q2049.48 212.9 2049.48 216.696 L2049.48 231.349 L2045.2 231.349 L2045.2 205.423 L2049.48 205.423 L2049.48 209.451 Q2051.01 207.113 2053.07 205.955 Q2055.15 204.798 2057.86 204.798 Q2062.33 204.798 2064.62 207.576 Q2066.91 210.33 2066.91 215.701 Z" fill="#000000" fill-rule="evenodd" fill-opacity="1" /><path clip-path="url(#clip390)" d="M 0 0 M2087 209.821 L2116.68 209.821 L2116.68 213.71 L2087 213.71 L2087 209.821 M2087 219.265 L2116.68 219.265 L2116.68 223.201 L2087 223.201 L2087 219.265 Z" fill="#000000" fill-rule="evenodd" fill-opacity="1" /><path clip-path="url(#clip390)" d="M 0 0 M2136.86 196.789 L2155.22 196.789 L2155.22 200.724 L2141.15 200.724 L2141.15 209.196 Q2142.17 208.849 2143.18 208.687 Q2144.2 208.502 2145.22 208.502 Q2151.01 208.502 2154.39 211.673 Q2157.77 214.844 2157.77 220.261 Q2157.77 225.839 2154.3 228.941 Q2150.82 232.02 2144.5 232.02 Q2142.33 232.02 2140.06 231.65 Q2137.81 231.279 2135.41 230.538 L2135.41 225.839 Q2137.49 226.974 2139.71 227.529 Q2141.93 228.085 2144.41 228.085 Q2148.42 228.085 2150.75 225.978 Q2153.09 223.872 2153.09 220.261 Q2153.09 216.65 2150.75 214.543 Q2148.42 212.437 2144.41 212.437 Q2142.54 212.437 2140.66 212.853 Q2138.81 213.27 2136.86 214.15 L2136.86 196.789 Z" fill="#000000" fill-rule="evenodd" fill-opacity="1" /><path clip-path="url(#clip390)" d="M 0 0 M2172.84 199.867 Q2169.23 199.867 2167.4 203.432 Q2165.59 206.974 2165.59 214.103 Q2165.59 221.21 2167.4 224.775 Q2169.23 228.316 2172.84 228.316 Q2176.47 228.316 2178.28 224.775 Q2180.11 221.21 2180.11 214.103 Q2180.11 206.974 2178.28 203.432 Q2176.47 199.867 2172.84 199.867 M2172.84 196.164 Q2178.65 196.164 2181.7 200.77 Q2184.78 205.353 2184.78 214.103 Q2184.78 222.83 2181.7 227.437 Q2178.65 232.02 2172.84 232.02 Q2167.03 232.02 2163.95 227.437 Q2160.89 222.83 2160.89 214.103 Q2160.89 205.353 2163.95 200.77 Q2167.03 196.164 2172.84 196.164 Z" fill="#000000" fill-rule="evenodd" fill-opacity="1" /><path clip-path="url(#clip390)" d="M 0 0 M2199.85 199.867 Q2196.24 199.867 2194.41 203.432 Q2192.6 206.974 2192.6 214.103 Q2192.6 221.21 2194.41 224.775 Q2196.24 228.316 2199.85 228.316 Q2203.48 228.316 2205.29 224.775 Q2207.12 221.21 2207.12 214.103 Q2207.12 206.974 2205.29 203.432 Q2203.48 199.867 2199.85 199.867 M2199.85 196.164 Q2205.66 196.164 2208.72 200.77 Q2211.79 205.353 2211.79 214.103 Q2211.79 222.83 2208.72 227.437 Q2205.66 232.02 2199.85 232.02 Q2194.04 232.02 2190.96 227.437 Q2187.91 222.83 2187.91 214.103 Q2187.91 205.353 2190.96 200.77 Q2194.04 196.164 2199.85 196.164 Z" fill="#000000" fill-rule="evenodd" fill-opacity="1" /><polyline clip-path="url(#clip390)" style="stroke:#3da44d; stroke-width:4; stroke-opacity:1; fill:none" points="
  1683.07,274.549 1821.72,274.549 
  "/>
<path clip-path="url(#clip390)" d="M 0 0 M1865.34 266.898 L1865.34 270.88 Q1863.53 269.884 1861.7 269.398 Q1859.9 268.889 1858.05 268.889 Q1853.9 268.889 1851.61 271.528 Q1849.32 274.144 1849.32 278.889 Q1849.32 283.634 1851.61 286.273 Q1853.9 288.889 1858.05 288.889 Q1859.9 288.889 1861.7 288.403 Q1863.53 287.893 1865.34 286.898 L1865.34 290.833 Q1863.56 291.667 1861.63 292.083 Q1859.74 292.5 1857.58 292.5 Q1851.73 292.5 1848.28 288.819 Q1844.83 285.139 1844.83 278.889 Q1844.83 272.546 1848.3 268.912 Q1851.8 265.278 1857.86 265.278 Q1859.83 265.278 1861.7 265.695 Q1863.58 266.088 1865.34 266.898 Z" fill="#000000" fill-rule="evenodd" fill-opacity="1" /><path clip-path="url(#clip390)" d="M 0 0 M1879.85 268.889 Q1876.43 268.889 1874.44 271.574 Q1872.44 274.236 1872.44 278.889 Q1872.44 283.542 1874.41 286.227 Q1876.4 288.889 1879.85 288.889 Q1883.25 288.889 1885.25 286.204 Q1887.24 283.518 1887.24 278.889 Q1887.24 274.282 1885.25 271.597 Q1883.25 268.889 1879.85 268.889 M1879.85 265.278 Q1885.41 265.278 1888.58 268.889 Q1891.75 272.5 1891.75 278.889 Q1891.75 285.255 1888.58 288.889 Q1885.41 292.5 1879.85 292.5 Q1874.27 292.5 1871.1 288.889 Q1867.95 285.255 1867.95 278.889 Q1867.95 272.5 1871.1 268.889 Q1874.27 265.278 1879.85 265.278 Z" fill="#000000" fill-rule="evenodd" fill-opacity="1" /><path clip-path="url(#clip390)" d="M 0 0 M1917.77 276.181 L1917.77 291.829 L1913.51 291.829 L1913.51 276.319 Q1913.51 272.639 1912.07 270.81 Q1910.64 268.982 1907.77 268.982 Q1904.32 268.982 1902.33 271.181 Q1900.34 273.38 1900.34 277.176 L1900.34 291.829 L1896.06 291.829 L1896.06 265.903 L1900.34 265.903 L1900.34 269.931 Q1901.87 267.593 1903.93 266.435 Q1906.01 265.278 1908.72 265.278 Q1913.19 265.278 1915.48 268.056 Q1917.77 270.81 1917.77 276.181 Z" fill="#000000" fill-rule="evenodd" fill-opacity="1" /><path clip-path="url(#clip390)" d="M 0 0 M1938.76 266.667 L1938.76 270.694 Q1936.96 269.769 1935.01 269.306 Q1933.07 268.843 1930.99 268.843 Q1927.81 268.843 1926.22 269.815 Q1924.64 270.787 1924.64 272.731 Q1924.64 274.213 1925.78 275.069 Q1926.91 275.903 1930.34 276.667 L1931.8 276.991 Q1936.33 277.963 1938.23 279.745 Q1940.15 281.505 1940.15 284.676 Q1940.15 288.287 1937.28 290.393 Q1934.44 292.5 1929.44 292.5 Q1927.35 292.5 1925.08 292.083 Q1922.84 291.69 1920.34 290.88 L1920.34 286.481 Q1922.7 287.708 1924.99 288.333 Q1927.28 288.935 1929.53 288.935 Q1932.54 288.935 1934.16 287.917 Q1935.78 286.875 1935.78 285 Q1935.78 283.264 1934.6 282.338 Q1933.44 281.412 1929.48 280.556 L1928 280.208 Q1924.04 279.375 1922.28 277.662 Q1920.52 275.926 1920.52 272.917 Q1920.52 269.259 1923.12 267.269 Q1925.71 265.278 1930.48 265.278 Q1932.84 265.278 1934.92 265.625 Q1937 265.972 1938.76 266.667 Z" fill="#000000" fill-rule="evenodd" fill-opacity="1" /><path clip-path="url(#clip390)" d="M 0 0 M1948.83 258.542 L1948.83 265.903 L1957.61 265.903 L1957.61 269.213 L1948.83 269.213 L1948.83 283.287 Q1948.83 286.458 1949.69 287.361 Q1950.57 288.264 1953.23 288.264 L1957.61 288.264 L1957.61 291.829 L1953.23 291.829 Q1948.3 291.829 1946.43 290 Q1944.55 288.148 1944.55 283.287 L1944.55 269.213 L1941.43 269.213 L1941.43 265.903 L1944.55 265.903 L1944.55 258.542 L1948.83 258.542 Z" fill="#000000" fill-rule="evenodd" fill-opacity="1" /><path clip-path="url(#clip390)" d="M 0 0 M1973.86 278.796 Q1968.69 278.796 1966.7 279.977 Q1964.71 281.157 1964.71 284.005 Q1964.71 286.273 1966.19 287.616 Q1967.7 288.935 1970.27 288.935 Q1973.81 288.935 1975.94 286.435 Q1978.09 283.912 1978.09 279.745 L1978.09 278.796 L1973.86 278.796 M1982.35 277.037 L1982.35 291.829 L1978.09 291.829 L1978.09 287.893 Q1976.63 290.255 1974.46 291.389 Q1972.28 292.5 1969.13 292.5 Q1965.15 292.5 1962.79 290.278 Q1960.45 288.032 1960.45 284.282 Q1960.45 279.907 1963.37 277.685 Q1966.31 275.463 1972.12 275.463 L1978.09 275.463 L1978.09 275.046 Q1978.09 272.107 1976.15 270.509 Q1974.23 268.889 1970.73 268.889 Q1968.51 268.889 1966.4 269.421 Q1964.3 269.954 1962.35 271.019 L1962.35 267.083 Q1964.69 266.181 1966.89 265.741 Q1969.09 265.278 1971.17 265.278 Q1976.8 265.278 1979.57 268.194 Q1982.35 271.111 1982.35 277.037 Z" fill="#000000" fill-rule="evenodd" fill-opacity="1" /><path clip-path="url(#clip390)" d="M 0 0 M2008.37 276.181 L2008.37 291.829 L2004.11 291.829 L2004.11 276.319 Q2004.11 272.639 2002.68 270.81 Q2001.24 268.982 1998.37 268.982 Q1994.92 268.982 1992.93 271.181 Q1990.94 273.38 1990.94 277.176 L1990.94 291.829 L1986.66 291.829 L1986.66 265.903 L1990.94 265.903 L1990.94 269.931 Q1992.47 267.593 1994.53 266.435 Q1996.61 265.278 1999.32 265.278 Q2003.79 265.278 2006.08 268.056 Q2008.37 270.81 2008.37 276.181 Z" fill="#000000" fill-rule="evenodd" fill-opacity="1" /><path clip-path="url(#clip390)" d="M 0 0 M2017.05 258.542 L2017.05 265.903 L2025.82 265.903 L2025.82 269.213 L2017.05 269.213 L2017.05 283.287 Q2017.05 286.458 2017.91 287.361 Q2018.79 288.264 2021.45 288.264 L2025.82 288.264 L2025.82 291.829 L2021.45 291.829 Q2016.52 291.829 2014.64 290 Q2012.77 288.148 2012.77 283.287 L2012.77 269.213 L2009.64 269.213 L2009.64 265.903 L2012.77 265.903 L2012.77 258.542 L2017.05 258.542 Z" fill="#000000" fill-rule="evenodd" fill-opacity="1" /><path clip-path="url(#clip390)" d="M 0 0 M2066.91 276.181 L2066.91 291.829 L2062.65 291.829 L2062.65 276.319 Q2062.65 272.639 2061.22 270.81 Q2059.78 268.982 2056.91 268.982 Q2053.46 268.982 2051.47 271.181 Q2049.48 273.38 2049.48 277.176 L2049.48 291.829 L2045.2 291.829 L2045.2 265.903 L2049.48 265.903 L2049.48 269.931 Q2051.01 267.593 2053.07 266.435 Q2055.15 265.278 2057.86 265.278 Q2062.33 265.278 2064.62 268.056 Q2066.91 270.81 2066.91 276.181 Z" fill="#000000" fill-rule="evenodd" fill-opacity="1" /><path clip-path="url(#clip390)" d="M 0 0 M2087 270.301 L2116.68 270.301 L2116.68 274.19 L2087 274.19 L2087 270.301 M2087 279.745 L2116.68 279.745 L2116.68 283.681 L2087 283.681 L2087 279.745 Z" fill="#000000" fill-rule="evenodd" fill-opacity="1" /><path clip-path="url(#clip390)" d="M 0 0 M2140.85 287.893 L2157.17 287.893 L2157.17 291.829 L2135.22 291.829 L2135.22 287.893 Q2137.88 285.139 2142.47 280.509 Q2147.07 275.856 2148.25 274.514 Q2150.5 271.991 2151.38 270.255 Q2152.28 268.495 2152.28 266.806 Q2152.28 264.051 2150.34 262.315 Q2148.42 260.579 2145.31 260.579 Q2143.11 260.579 2140.66 261.343 Q2138.23 262.107 2135.45 263.657 L2135.45 258.935 Q2138.28 257.801 2140.73 257.222 Q2143.18 256.644 2145.22 256.644 Q2150.59 256.644 2153.79 259.329 Q2156.98 262.014 2156.98 266.505 Q2156.98 268.634 2156.17 270.556 Q2155.38 272.454 2153.28 275.046 Q2152.7 275.718 2149.6 278.935 Q2146.49 282.13 2140.85 287.893 Z" fill="#000000" fill-rule="evenodd" fill-opacity="1" /><path clip-path="url(#clip390)" d="M 0 0 M2162.28 257.269 L2180.64 257.269 L2180.64 261.204 L2166.56 261.204 L2166.56 269.676 Q2167.58 269.329 2168.6 269.167 Q2169.62 268.982 2170.64 268.982 Q2176.42 268.982 2179.8 272.153 Q2183.18 275.324 2183.18 280.741 Q2183.18 286.319 2179.71 289.421 Q2176.24 292.5 2169.92 292.5 Q2167.74 292.5 2165.48 292.13 Q2163.23 291.759 2160.82 291.018 L2160.82 286.319 Q2162.91 287.454 2165.13 288.009 Q2167.35 288.565 2169.83 288.565 Q2173.83 288.565 2176.17 286.458 Q2178.51 284.352 2178.51 280.741 Q2178.51 277.13 2176.17 275.023 Q2173.83 272.917 2169.83 272.917 Q2167.95 272.917 2166.08 273.333 Q2164.23 273.75 2162.28 274.63 L2162.28 257.269 Z" fill="#000000" fill-rule="evenodd" fill-opacity="1" /><path clip-path="url(#clip390)" d="M 0 0 M2198.25 260.347 Q2194.64 260.347 2192.81 263.912 Q2191.01 267.454 2191.01 274.583 Q2191.01 281.69 2192.81 285.255 Q2194.64 288.796 2198.25 288.796 Q2201.89 288.796 2203.69 285.255 Q2205.52 281.69 2205.52 274.583 Q2205.52 267.454 2203.69 263.912 Q2201.89 260.347 2198.25 260.347 M2198.25 256.644 Q2204.06 256.644 2207.12 261.25 Q2210.2 265.833 2210.2 274.583 Q2210.2 283.31 2207.12 287.917 Q2204.06 292.5 2198.25 292.5 Q2192.44 292.5 2189.36 287.917 Q2186.31 283.31 2186.31 274.583 Q2186.31 265.833 2189.36 261.25 Q2192.44 256.644 2198.25 256.644 Z" fill="#000000" fill-rule="evenodd" fill-opacity="1" /><path clip-path="url(#clip390)" d="M 0 0 M2225.27 260.347 Q2221.66 260.347 2219.83 263.912 Q2218.02 267.454 2218.02 274.583 Q2218.02 281.69 2219.83 285.255 Q2221.66 288.796 2225.27 288.796 Q2228.9 288.796 2230.71 285.255 Q2232.54 281.69 2232.54 274.583 Q2232.54 267.454 2230.71 263.912 Q2228.9 260.347 2225.27 260.347 M2225.27 256.644 Q2231.08 256.644 2234.13 261.25 Q2237.21 265.833 2237.21 274.583 Q2237.21 283.31 2234.13 287.917 Q2231.08 292.5 2225.27 292.5 Q2219.46 292.5 2216.38 287.917 Q2213.32 283.31 2213.32 274.583 Q2213.32 265.833 2216.38 261.25 Q2219.46 256.644 2225.27 256.644 Z" fill="#000000" fill-rule="evenodd" fill-opacity="1" /></svg>
